<svg xmlns="http://www.w3.org/2000/svg" viewBox="0 0 400 400">
  <defs>
    <linearGradient id="tsGrad" x1="0%" y1="0%" x2="100%" y2="100%">
      <stop offset="0%" style="stop-color:#3178c6"/>
      <stop offset="100%" style="stop-color:#235a97"/>
    </linearGradient>
  </defs>
  <rect width="400" height="400" rx="40" fill="url(#tsGrad)"/>
  <path d="M87 192v-38h113v38H158v126h-42V192H87z" fill="#fff"/>
  <path d="M235 182c-13-8-28-12-43-12-10 0-18 2-24 5-5 3-8 8-8 13s3 9 8 12c5 4 14 8 28 12 19 5 34 12 44 21 10 9 15 22 15 37 0 21-8 37-24 49-16 11-38 17-66 17-27 0-50-6-69-18v-44c21 16 44 24 69 24 12 0 21-2 28-6 6-4 10-9 10-16s-3-12-9-16c-6-4-17-9-33-14-18-5-32-12-42-21-10-9-15-21-15-36 0-19 8-35 23-47 15-11 35-17 60-17 23 0 43 4 60 13v43z" fill="#fff"/>
</svg>
